<?xml version="1.0" encoding="UTF-8"?>
<!DOCTYPE svg PUBLIC "-//W3C//DTD SVG 1.1//EN" "http://www.w3.org/Graphics/SVG/1.1/DTD/svg11.dtd">
<!-- Creator: CorelDRAW SE -->
<svg xmlns="http://www.w3.org/2000/svg" xml:space="preserve" width="200mm" height="200mm" version="1.1" style="shape-rendering:geometricPrecision; text-rendering:geometricPrecision; image-rendering:optimizeQuality; fill-rule:evenodd; clip-rule:evenodd"
viewBox="0 0 20000 20000"
 xmlns:xlink="http://www.w3.org/1999/xlink">
 <defs>
  <style type="text/css">
   <![CDATA[
    .fil0 {fill:url(#id0);fill-rule:nonzero}
   ]]>
  </style>
  <linearGradient id="id0" gradientUnits="userSpaceOnUse" x1="2468.95" y1="19174.1" x2="16977.1" y2="8603.73">
   <stop offset="0" style="stop-opacity:1; stop-color:#00A0E3"/>
   <stop offset="0.639216" style="stop-opacity:1; stop-color:#0078AD"/>
   <stop offset="1" style="stop-opacity:1; stop-color:#005077"/>
  </linearGradient>
 </defs>
 <g id="Warstwa_x0020_1">
  <metadata id="CorelCorpID_0Corel-Layer"/>
  <path class="fil0" d="M7906 9490l4985 -2878c205,-118 440,-118 646,0l4703 2717c205,119 322,322 322,560 0,237 -117,440 -322,557l-322 187 0 0 -387 223 -11323 6537c-205,119 -441,119 -646,0 -205,-118 -322,-322 -322,-559l0 -1142 1375 -793 0 678 9857 -5690 -3361 -1941 -3552 2051 3044 1754 -1355 782 -3340 -1926c-205,-118 -324,-322 -324,-557 0,-238 117,-441 322,-560zm10012 1143l-4 1 0 0 -3 0 0 0 -3 2 0 0 -2 0 0 0 -3 2 0 0 -4 0 0 0 -3 1 0 0 -2 0 -3 0 0 0 -4 2 0 0 -3 0 0 0 -4 0 0 0 -1 2 0 0 -4 0 0 0 -3 0 0 0 -3 0 0 0 -4 0 0 0 -1 0 0 0 -4 1 -3 0 0 0 -4 0 0 0 -3 0 0 0 -2 0 -3 0 0 0 -3 0 0 0 -4 0 -3 0 -2 0 0 0 -3 -1 0 0 -4 0 0 0 -3 0 0 0 -4 0 -1 0 -4 0 0 0 -3 -2 0 0 -3 0 -2 0 -3 -2 0 0 -4 0 -3 0 0 0 -4 -1 0 0 -1 0 -4 -2 -3 0 -4 -2 -1 0 0 0 -4 -1 -3 0 -3 -2 -4 -2 -1 0 0 0 -4 -2 -3 -1 -2 0 -3 -2 -4 -2 -3 -1 -2 0 -3 -2 -4 -2 -1 -1 -4 -2 -3 -2 -3 -1 -1253 -724m-9857 4642l-1375 795 0 -12383c0,-237 117,-440 322,-557 205,-119 441,-119 646,0l5720 3301c205,119 324,322 324,560 0,237 -119,440 -324,559l-4993 2883 0 -1483 3307 -1912 -3627 -2095 0 10332z"/>
 </g>
</svg>
