<?xml version="1.0" encoding="UTF-8"?>
<!DOCTYPE svg PUBLIC "-//W3C//DTD SVG 1.1//EN" "http://www.w3.org/Graphics/SVG/1.1/DTD/svg11.dtd">
<!-- Creator: CorelDRAW SE -->
<svg xmlns="http://www.w3.org/2000/svg" xml:space="preserve" width="135.26mm" height="166.24mm" version="1.1" style="shape-rendering:geometricPrecision; text-rendering:geometricPrecision; image-rendering:optimizeQuality; fill-rule:evenodd; clip-rule:evenodd"
viewBox="0 0 13526 16624"
 xmlns:xlink="http://www.w3.org/1999/xlink">
 <defs>
  <style type="text/css">
   <![CDATA[
    .fil3 {fill:none;fill-rule:nonzero}
    .fil1 {fill:#2B2A29;fill-rule:nonzero}
    .fil135 {fill:#999393;fill-rule:nonzero}
    .fil134 {fill:#999494;fill-rule:nonzero}
    .fil133 {fill:#9A9494;fill-rule:nonzero}
    .fil132 {fill:#9A9495;fill-rule:nonzero}
    .fil131 {fill:#9B9595;fill-rule:nonzero}
    .fil130 {fill:#9B9696;fill-rule:nonzero}
    .fil129 {fill:#9C9696;fill-rule:nonzero}
    .fil128 {fill:#9C9796;fill-rule:nonzero}
    .fil127 {fill:#9D9797;fill-rule:nonzero}
    .fil126 {fill:#9E9898;fill-rule:nonzero}
    .fil125 {fill:#9E9999;fill-rule:nonzero}
    .fil124 {fill:#9F9A9A;fill-rule:nonzero}
    .fil123 {fill:#A09A9A;fill-rule:nonzero}
    .fil122 {fill:#A09A9B;fill-rule:nonzero}
    .fil121 {fill:#A09B9B;fill-rule:nonzero}
    .fil120 {fill:#A29C9C;fill-rule:nonzero}
    .fil119 {fill:#A29D9D;fill-rule:nonzero}
    .fil118 {fill:#A39D9D;fill-rule:nonzero}
    .fil117 {fill:#A49E9E;fill-rule:nonzero}
    .fil116 {fill:#A49F9F;fill-rule:nonzero}
    .fil115 {fill:#A59F9F;fill-rule:nonzero}
    .fil114 {fill:#A6A0A0;fill-rule:nonzero}
    .fil113 {fill:#A6A1A1;fill-rule:nonzero}
    .fil112 {fill:#A6A1A2;fill-rule:nonzero}
    .fil111 {fill:#A7A2A2;fill-rule:nonzero}
    .fil110 {fill:#A8A2A2;fill-rule:nonzero}
    .fil109 {fill:#A8A3A2;fill-rule:nonzero}
    .fil108 {fill:#A8A3A3;fill-rule:nonzero}
    .fil107 {fill:#A9A4A3;fill-rule:nonzero}
    .fil106 {fill:#A9A4A4;fill-rule:nonzero}
    .fil105 {fill:#AAA4A4;fill-rule:nonzero}
    .fil104 {fill:#AAA5A5;fill-rule:nonzero}
    .fil103 {fill:#ABA6A6;fill-rule:nonzero}
    .fil102 {fill:#ACA6A7;fill-rule:nonzero}
    .fil101 {fill:#ACA7A7;fill-rule:nonzero}
    .fil100 {fill:#ADA8A8;fill-rule:nonzero}
    .fil99 {fill:#AEA9A9;fill-rule:nonzero}
    .fil98 {fill:#AEAAA9;fill-rule:nonzero}
    .fil97 {fill:#AFAAAA;fill-rule:nonzero}
    .fil95 {fill:#B0ABAC;fill-rule:nonzero}
    .fil96 {fill:#B1ABAB;fill-rule:nonzero}
    .fil94 {fill:#B1ACAC;fill-rule:nonzero}
    .fil93 {fill:#B1ADAD;fill-rule:nonzero}
    .fil92 {fill:#B2ADAD;fill-rule:nonzero}
    .fil91 {fill:#B3ADAD;fill-rule:nonzero}
    .fil90 {fill:#B3AEAE;fill-rule:nonzero}
    .fil89 {fill:#B5B0B0;fill-rule:nonzero}
    .fil88 {fill:#B5B0B1;fill-rule:nonzero}
    .fil87 {fill:#B6B1B1;fill-rule:nonzero}
    .fil86 {fill:#B7B2B1;fill-rule:nonzero}
    .fil85 {fill:#B7B2B2;fill-rule:nonzero}
    .fil84 {fill:#B7B3B2;fill-rule:nonzero}
    .fil83 {fill:#B7B3B3;fill-rule:nonzero}
    .fil82 {fill:#B8B3B3;fill-rule:nonzero}
    .fil81 {fill:#B9B4B4;fill-rule:nonzero}
    .fil80 {fill:#BAB5B5;fill-rule:nonzero}
    .fil79 {fill:#BBB6B6;fill-rule:nonzero}
    .fil78 {fill:#BCB7B6;fill-rule:nonzero}
    .fil77 {fill:#BCB7B7;fill-rule:nonzero}
    .fil76 {fill:#BCB8B8;fill-rule:nonzero}
    .fil75 {fill:#BDB8B8;fill-rule:nonzero}
    .fil74 {fill:#BDB9B8;fill-rule:nonzero}
    .fil73 {fill:#BEB9B9;fill-rule:nonzero}
    .fil72 {fill:#BEBAB9;fill-rule:nonzero}
    .fil71 {fill:#BFBABB;fill-rule:nonzero}
    .fil70 {fill:#C0BBBB;fill-rule:nonzero}
    .fil69 {fill:#C0BBBC;fill-rule:nonzero}
    .fil68 {fill:#C0BCBC;fill-rule:nonzero}
    .fil67 {fill:#C2BDBC;fill-rule:nonzero}
    .fil66 {fill:#C2BDBD;fill-rule:nonzero}
    .fil65 {fill:#C2BEBD;fill-rule:nonzero}
    .fil64 {fill:#C2BEBE;fill-rule:nonzero}
    .fil63 {fill:#C4BFBF;fill-rule:nonzero}
    .fil62 {fill:#C5C0C0;fill-rule:nonzero}
    .fil61 {fill:#C5C1C1;fill-rule:nonzero}
    .fil60 {fill:#C6C1C2;fill-rule:nonzero}
    .fil59 {fill:#C7C2C3;fill-rule:nonzero}
    .fil58 {fill:#C7C3C3;fill-rule:nonzero}
    .fil57 {fill:#C8C4C4;fill-rule:nonzero}
    .fil56 {fill:#C9C5C5;fill-rule:nonzero}
    .fil55 {fill:#C9C6C5;fill-rule:nonzero}
    .fil54 {fill:#CAC6C7;fill-rule:nonzero}
    .fil53 {fill:#CBC7C7;fill-rule:nonzero}
    .fil52 {fill:#CCC8C8;fill-rule:nonzero}
    .fil51 {fill:#CDC9C9;fill-rule:nonzero}
    .fil50 {fill:#CDC9CA;fill-rule:nonzero}
    .fil49 {fill:#CECACA;fill-rule:nonzero}
    .fil48 {fill:#CFCBCB;fill-rule:nonzero}
    .fil47 {fill:#CFCCCC;fill-rule:nonzero}
    .fil46 {fill:#D0CCCD;fill-rule:nonzero}
    .fil45 {fill:#D1CECE;fill-rule:nonzero}
    .fil44 {fill:#D2CFCF;fill-rule:nonzero}
    .fil43 {fill:#D3D0D0;fill-rule:nonzero}
    .fil42 {fill:#D4D1D1;fill-rule:nonzero}
    .fil41 {fill:#D5D2D2;fill-rule:nonzero}
    .fil40 {fill:#D6D3D3;fill-rule:nonzero}
    .fil39 {fill:#D7D4D4;fill-rule:nonzero}
    .fil38 {fill:#D8D5D5;fill-rule:nonzero}
    .fil37 {fill:#D8D5D6;fill-rule:nonzero}
    .fil36 {fill:#D9D6D6;fill-rule:nonzero}
    .fil35 {fill:#DAD7D8;fill-rule:nonzero}
    .fil34 {fill:#DAD8D8;fill-rule:nonzero}
    .fil33 {fill:#DBD8D9;fill-rule:nonzero}
    .fil32 {fill:#DCDADA;fill-rule:nonzero}
    .fil31 {fill:#DDDBDB;fill-rule:nonzero}
    .fil30 {fill:#DFDCDD;fill-rule:nonzero}
    .fil28 {fill:#DFDEDE;fill-rule:nonzero}
    .fil29 {fill:#E0DDDE;fill-rule:nonzero}
    .fil27 {fill:#E1DFDF;fill-rule:nonzero}
    .fil26 {fill:#E2E0E0;fill-rule:nonzero}
    .fil25 {fill:#E3E0E0;fill-rule:nonzero}
    .fil24 {fill:#E3E2E2;fill-rule:nonzero}
    .fil23 {fill:#E4E2E2;fill-rule:nonzero}
    .fil22 {fill:#E5E3E3;fill-rule:nonzero}
    .fil21 {fill:#E6E4E5;fill-rule:nonzero}
    .fil20 {fill:#E6E5E5;fill-rule:nonzero}
    .fil19 {fill:#E7E6E6;fill-rule:nonzero}
    .fil18 {fill:#E9E7E7;fill-rule:nonzero}
    .fil17 {fill:#E9E8E8;fill-rule:nonzero}
    .fil16 {fill:#EBEAE9;fill-rule:nonzero}
    .fil15 {fill:#EBEAEA;fill-rule:nonzero}
    .fil14 {fill:#ECEBEB;fill-rule:nonzero}
    .fil13 {fill:#EDEDEC;fill-rule:nonzero}
    .fil12 {fill:#EEEDED;fill-rule:nonzero}
    .fil11 {fill:#EEEEED;fill-rule:nonzero}
    .fil10 {fill:#EFEFEF;fill-rule:nonzero}
    .fil9 {fill:#F0F0EF;fill-rule:nonzero}
    .fil8 {fill:#F0F0F0;fill-rule:nonzero}
    .fil7 {fill:#F2F1F2;fill-rule:nonzero}
    .fil6 {fill:#F3F2F2;fill-rule:nonzero}
    .fil5 {fill:#F4F3F3;fill-rule:nonzero}
    .fil4 {fill:#F4F4F4;fill-rule:nonzero}
    .fil2 {fill:url(#id2);fill-rule:nonzero}
    .fil0 {fill:url(#id3);fill-rule:nonzero}
    .fil136 {fill:url(#id4);fill-rule:nonzero}
   ]]>
  </style>
    <clipPath id="id0" style="clip-rule:nonzero">
     <path d="M6763 315c1664,0 3170,674 4260,1765 1090,1090 1765,2596 1765,4260 0,1664 -675,3170 -1765,4260 -1090,1090 -2596,1765 -4260,1765 -1664,0 -3170,-675 -4260,-1765 -1090,-1090 -1765,-2596 -1765,-4260 0,-1664 675,-3170 1765,-4260 1090,-1091 2596,-1765 4260,-1765zm4154 1871c-1063,-1063 -2532,-1721 -4154,-1721 -1622,0 -3091,658 -4154,1721 -1063,1063 -1721,2532 -1721,4154 0,1622 658,3091 1721,4154 1063,1063 2532,1721 4154,1721 1622,0 3091,-658 4154,-1721 1063,-1063 1721,-2532 1721,-4154 0,-1622 -658,-3091 -1721,-4154z"/>
    </clipPath>
     <clipPath id="id1" style="clip-rule:nonzero">
      <path d="M137 15321l0 -253 607 0c88,0 157,-30 210,-91 53,-60 79,-138 79,-236l0 0c0,-99 -26,-179 -79,-239 -53,-60 -122,-90 -210,-90l-607 0 0 -254 598 0c116,0 215,24 301,73 85,48 152,116 199,203 48,87 71,189 71,307l0 0c0,117 -23,219 -71,306 -47,87 -114,154 -199,202 -86,48 -185,72 -301,72l-598 0zm-137 737l0 -1900 266 0 0 1900 -266 0zm1574 0l0 -1356 267 0 0 1356 -267 0zm747 -1035c-24,-29 -54,-50 -90,-65 -35,-15 -76,-22 -124,-22 -84,0 -149,23 -196,70 -47,46 -70,111 -70,194l-28 -262c42,-80 95,-143 162,-188 66,-45 140,-68 220,-68 62,0 118,9 168,27 50,18 94,44 131,79l-173 235zm889 1055c-178,0 -315,-52 -413,-155 -97,-103 -146,-248 -146,-436l0 -221c0,-185 49,-329 146,-431 98,-102 235,-153 413,-153 178,0 316,51 413,153 98,102 147,246 147,431l0 225c0,186 -49,331 -147,433 -97,102 -235,154 -413,154zm0 -254c94,0 165,-29 217,-87 51,-59 76,-140 76,-246l0 -225c0,-105 -25,-186 -76,-244 -52,-57 -123,-86 -217,-86 -92,0 -164,29 -215,86 -52,58 -77,139 -77,244l0 225c0,106 25,187 77,246 51,58 123,87 215,87zm2559 234l0 -822c0,-96 -25,-170 -74,-222 -49,-52 -119,-78 -210,-78 -83,0 -146,25 -192,75 -45,51 -68,123 -68,215l-53 -261c43,-91 100,-161 170,-210 69,-48 147,-73 231,-73 147,0 261,48 341,145 81,96 121,232 121,408l0 823 -266 0zm-1620 0l0 -1356 266 0 0 1356 -266 0zm810 0l0 -822c0,-96 -24,-170 -71,-222 -47,-52 -114,-78 -200,-78 -87,0 -154,23 -202,69 -47,46 -71,111 -71,195l-27 -262c42,-81 96,-145 164,-189 67,-44 142,-67 224,-67 143,0 253,48 332,145 78,96 117,232 117,408l0 823 -266 0zm2002 20c-178,0 -316,-52 -413,-155 -98,-103 -146,-248 -146,-436l0 -221c0,-185 48,-329 146,-431 97,-102 235,-153 413,-153 177,0 315,51 413,153 97,102 146,246 146,431l0 225c0,186 -49,331 -146,433 -98,102 -236,154 -413,154zm0 -254c93,0 165,-29 216,-87 51,-59 76,-140 76,-246l0 -225c0,-105 -25,-186 -76,-244 -51,-57 -123,-86 -216,-86 -93,0 -164,29 -216,86 -51,58 -77,139 -77,244l0 225c0,106 26,187 77,246 52,58 123,87 216,87zm2323 -789l659 0 0 332c0,143 -28,267 -84,374 -55,107 -132,190 -232,248 -99,59 -215,89 -350,89 -134,0 -253,-28 -354,-83 -101,-56 -179,-134 -235,-234 -56,-101 -83,-218 -83,-352l0 -561c0,-143 27,-267 83,-374 55,-106 132,-188 231,-247 100,-59 217,-88 351,-88 110,0 211,23 302,70 91,47 167,113 229,198 62,84 104,183 126,296l0 0 -289 0 0 0c-24,-98 -72,-174 -142,-226 -71,-52 -146,-78 -226,-78 -119,0 -214,41 -285,123 -72,83 -107,191 -107,326l0 561c0,123 36,222 109,297 74,74 170,112 290,112 119,0 214,-40 285,-118 72,-79 107,-188 107,-328l0 -82 -385 0 0 -255zm1849 -333l272 0 -578 1674c-32,93 -79,158 -139,194 -61,36 -145,54 -252,54l-53 0 0 -256 53 0c50,0 90,-10 119,-30 29,-20 55,-55 76,-103l502 -1533zm-388 1467l-541 -1467 272 0 416 1179 -147 288zm2515 -111l0 -822c0,-96 -25,-170 -74,-222 -49,-52 -119,-78 -209,-78 -83,0 -147,25 -193,75 -45,51 -68,123 -68,215l-53 -261c43,-91 100,-161 170,-210 69,-48 147,-73 231,-73 147,0 261,48 342,145 80,96 120,232 120,408l0 823 -266 0zm-1620 0l0 -1356 266 0 0 1356 -266 0zm810 0l0 -822c0,-96 -24,-170 -71,-222 -47,-52 -113,-78 -200,-78 -87,0 -154,23 -202,69 -47,46 -71,111 -71,195l-27 -262c42,-81 96,-145 164,-189 67,-44 142,-67 224,-67 143,0 253,48 332,145 78,96 117,232 117,408l0 823 -266 0z"/>
     </clipPath>
  <linearGradient id="id2" gradientUnits="userSpaceOnUse" x1="11354" y1="14040" x2="158" y2="-4734.99">
   <stop offset="0" style="stop-opacity:1; stop-color:#F6F6F6"/>
   <stop offset="0.0313725" style="stop-opacity:1; stop-color:#F6F6F6"/>
   <stop offset="0.258824" style="stop-opacity:1; stop-color:#757575"/>
   <stop offset="0.341176" style="stop-opacity:1; stop-color:#757575"/>
   <stop offset="0.509804" style="stop-opacity:1; stop-color:#5D5D5D"/>
   <stop offset="0.619608" style="stop-opacity:1; stop-color:#5D5D5D"/>
   <stop offset="0.870588" style="stop-opacity:1; stop-color:#8C8C8C"/>
   <stop offset="0.921569" style="stop-opacity:1; stop-color:#8C8C8C"/>
   <stop offset="1" style="stop-opacity:1; stop-color:#606060"/>
  </linearGradient>
  <linearGradient id="id3" gradientUnits="userSpaceOnUse" x1="-647.99" y1="-1070.99" x2="13540" y2="13117">
   <stop offset="0" style="stop-opacity:1; stop-color:#F6F6F6"/>
   <stop offset="0.129412" style="stop-opacity:1; stop-color:#606060"/>
   <stop offset="0.219608" style="stop-opacity:0.517647; stop-color:#606060"/>
   <stop offset="0.309804" style="stop-opacity:1; stop-color:#606060"/>
   <stop offset="0.360784" style="stop-opacity:1; stop-color:#C8C8C8"/>
   <stop offset="0.490196" style="stop-opacity:0.619608; stop-color:#606060"/>
   <stop offset="0.580392" style="stop-opacity:1; stop-color:#606060"/>
   <stop offset="0.701961" style="stop-opacity:1; stop-color:#C8C8C8"/>
   <stop offset="0.709804" style="stop-opacity:1; stop-color:#C8C8C8"/>
   <stop offset="0.870588" style="stop-opacity:0.858824; stop-color:#606060"/>
   <stop offset="0.921569" style="stop-opacity:1; stop-color:#606060"/>
   <stop offset="1" style="stop-opacity:1; stop-color:#C8C8C8"/>
  </linearGradient>
  <linearGradient id="id4" gradientUnits="userSpaceOnUse" x1="2980" y1="11042" x2="10578" y2="5505.62">
   <stop offset="0" style="stop-opacity:1; stop-color:#00A0E3"/>
   <stop offset="0.639216" style="stop-opacity:1; stop-color:#0078AD"/>
   <stop offset="1" style="stop-opacity:1; stop-color:#005077"/>
  </linearGradient>
 </defs>
 <g id="Warstwa_x0020_1">
  <metadata id="CorelCorpID_0Corel-Layer"/>
  <g id="_925236304">
   <path class="fil0" d="M6763 0c-3496,0 -6340,2844 -6340,6340 0,3496 2844,6340 6340,6340 3496,0 6340,-2844 6340,-6340 0,-3496 -2844,-6340 -6340,-6340zm0 12327l0 0c-3307,0 -5987,-2681 -5987,-5987 0,-3307 2680,-5987 5987,-5987 3307,0 5987,2680 5987,5987 0,3306 -2680,5987 -5987,5987z"/>
   <path class="fil1" d="M6763 315c1664,0 3170,674 4260,1765 1090,1090 1765,2596 1765,4260 0,1664 -675,3170 -1765,4260 -1090,1090 -2596,1765 -4260,1765 -1664,0 -3170,-675 -4260,-1765 -1090,-1090 -1765,-2596 -1765,-4260 0,-1664 675,-3170 1765,-4260 1090,-1091 2596,-1765 4260,-1765zm4154 1871c-1063,-1063 -2532,-1721 -4154,-1721 -1622,0 -3091,658 -4154,1721 -1063,1063 -1721,2532 -1721,4154 0,1622 658,3091 1721,4154 1063,1063 2532,1721 4154,1721 1622,0 3091,-658 4154,-1721 1063,-1063 1721,-2532 1721,-4154 0,-1622 -658,-3091 -1721,-4154z"/>
   <g>
   </g>
   <g style="clip-path:url(#id0)">
    <g id="_932495368">
     <path id="_1" class="fil2" d="M6763 12398c-3341,0 -6058,-2718 -6058,-6058 0,-3341 2717,-6058 6058,-6058 3341,0 6058,2717 6058,6058 0,3340 -2717,6058 -6058,6058zm5952 -6058l0 0c0,3282 -2670,5952 -5952,5952 -615,0 -1209,-94 -1768,-268 -46,-15 -93,-30 -139,-46l0 0c-92,-31 -183,-64 -273,-100 -45,-18 -90,-36 -134,-55l0 0c-45,-19 -89,-38 -133,-58l0 0c-44,-20 -88,-40 -131,-61l0 0c-43,-21 -86,-42 -129,-64l0 0c-43,-22 -85,-45 -128,-68l0 0c-42,-23 -84,-46 -125,-70l0 0c-42,-24 -83,-48 -124,-73l0 0c-41,-25 -81,-50 -122,-76l0 0c-40,-26 -80,-52 -119,-79l0 0c-40,-27 -79,-54 -118,-82l0 0c-39,-28 -78,-56 -116,-84l0 0c-38,-29 -76,-58 -113,-87l0 0c-38,-30 -75,-60 -112,-90l0 0c-36,-30 -73,-61 -109,-92 -1260,-1093 -2059,-2704 -2059,-4499 0,-3282 2670,-5952 5952,-5952l0 0c615,0 1209,94 1768,268 47,15 93,30 139,45l0 0c92,32 183,65 273,101 45,17 90,36 134,55l1 0c44,19 88,38 132,58l0 0c44,20 88,40 131,61l0 0c43,21 86,42 129,64l0 0c43,22 85,45 128,68l0 0c42,23 84,46 125,70l0 0c42,24 83,48 124,73l0 0c41,25 81,50 122,76l0 0c40,26 80,52 119,79l0 0c40,27 79,54 118,82l0 0c39,27 78,56 116,84l0 0c38,29 76,58 113,87l0 0c38,30 75,60 112,90l0 0c36,30 73,61 109,92 1260,1092 2059,2704 2059,4499z"/>
    </g>
   </g>
   <path class="fil3" d="M6763 315c1664,0 3170,674 4260,1765 1090,1090 1765,2596 1765,4260 0,1664 -675,3170 -1765,4260 -1090,1090 -2596,1765 -4260,1765 -1664,0 -3170,-675 -4260,-1765 -1090,-1090 -1765,-2596 -1765,-4260 0,-1664 675,-3170 1765,-4260 1090,-1091 2596,-1765 4260,-1765zm4154 1871c-1063,-1063 -2532,-1721 -4154,-1721 -1622,0 -3091,658 -4154,1721 -1063,1063 -1721,2532 -1721,4154 0,1622 658,3091 1721,4154 1063,1063 2532,1721 4154,1721 1622,0 3091,-658 4154,-1721 1063,-1063 1721,-2532 1721,-4154 0,-1622 -658,-3091 -1721,-4154z"/>
   <path class="fil3" d="M6763 315c1664,0 3170,674 4260,1765 1090,1090 1765,2596 1765,4260 0,1664 -675,3170 -1765,4260 -1090,1090 -2596,1765 -4260,1765 -1664,0 -3170,-675 -4260,-1765 -1090,-1090 -1765,-2596 -1765,-4260 0,-1664 675,-3170 1765,-4260 1090,-1091 2596,-1765 4260,-1765zm4154 1871c-1063,-1063 -2532,-1721 -4154,-1721 -1622,0 -3091,658 -4154,1721 -1063,1063 -1721,2532 -1721,4154 0,1622 658,3091 1721,4154 1063,1063 2532,1721 4154,1721 1622,0 3091,-658 4154,-1721 1063,-1063 1721,-2532 1721,-4154 0,-1622 -658,-3091 -1721,-4154z"/>
   <g id="_925237096">
    <g>
    </g>
    <g style="clip-path:url(#id1)">
     <g id="_925238224">
      <polygon class="fil4" points="6278,15265 6367,15265 6367,15303 6278,15303 "/>
      <path id="_1_0" class="fil4" d="M6293 15272l0 25 59 0 0 -25 -59 0zm-45 -20l148 0 0 64 -148 0 0 -64z"/>
      <path id="_2" class="fil5" d="M6263 15259l0 51 119 0 0 -51 -119 0zm-44 -19l207 0 0 89 -207 0 0 -89z"/>
      <path id="_3" class="fil6" d="M6234 15246l0 77 177 0 0 -77 -177 0zm-45 -19l267 0 0 115 -267 0 0 -115z"/>
      <path id="_4" class="fil7" d="M6204 15233l0 102 237 0 0 -102 -237 0zm-44 -19l325 0 0 141 -325 0 0 -141z"/>
      <path id="_5" class="fil8" d="M6174 15220l0 128 296 0 0 -128 -296 0zm-44 -19l385 0 0 166 -385 0 0 -166z"/>
      <path id="_6" class="fil9" d="M6145 15208l0 153 355 0 0 -153 -355 0zm-45 -19l444 0 0 191 -444 0 0 -191z"/>
      <path id="_7" class="fil10" d="M6115 15195l0 179 415 0 0 -179 -415 0zm-44 -19l503 0 0 217 -503 0 0 -217z"/>
      <path id="_8" class="fil11" d="M6086 15182l0 204 473 0 0 -204 -473 0zm-45 -19l563 0 0 243 -563 0 0 -243z"/>
      <path id="_9" class="fil12" d="M6056 15169l0 230 533 0 0 -230 -533 0zm-44 -19l621 0 0 268 -621 0 0 -268z"/>
      <path id="_10" class="fil13" d="M6026 15157l0 255 592 0 0 -255 -592 0zm-44 -20l681 0 0 294 -681 0 0 -294z"/>
      <path id="_11" class="fil14" d="M5997 15144l0 281 651 0 0 -281 -651 0zm-45 -19l740 0 0 319 -740 0 0 -319z"/>
      <path id="_12" class="fil15" d="M5967 15131l0 307 711 0 0 -307 -711 0zm-44 -19l799 0 0 345 -799 0 0 -345z"/>
      <path id="_13" class="fil16" d="M5938 15118l0 332 769 0 0 -332 -769 0zm-45 -19l859 0 0 370 -859 0 0 -370z"/>
      <path id="_14" class="fil17" d="M5908 15106l0 357 829 0 0 -357 -829 0zm-44 -20l917 0 0 396 -917 0 0 -396z"/>
      <path id="_15" class="fil18" d="M5878 15093l0 383 888 0 1 -383 -889 0zm-44 -19l977 0 0 421 -977 0 0 -421z"/>
      <path id="_16" class="fil18" d="M5849 15080l0 409 947 0 0 -409 -947 0zm-45 -19l1037 0 0 447 -1037 0 0 -447z"/>
      <path id="_17" class="fil19" d="M5819 15067l0 434 1007 0 0 -434 -1007 0zm-44 -19l1095 0 0 473 -1095 0 0 -473z"/>
      <path id="_18" class="fil20" d="M5790 15054l0 460 1065 0 0 -460 -1065 0zm-45 -19l1155 0 0 498 -1155 0 0 -498z"/>
      <path id="_19" class="fil21" d="M5760 15042l0 485 1125 0 0 -485 -1125 0zm-44 -19l1213 -1 0 524 -1213 0 0 -523z"/>
      <path id="_20" class="fil22" d="M5730 15029l0 511 1185 0 0 -511 -1185 0zm-44 -19l1273 0 0 549 -1273 0 0 -549z"/>
      <path id="_21" class="fil23" d="M5701 15016l0 536 1243 0 0 -536 -1243 0zm-45 -19l1333 0 0 575 -1333 0 0 -575z"/>
      <path id="_22" class="fil24" d="M5671 15003l0 562 1303 0 0 -562 -1303 0zm-44 -19l1391 0 0 600 -1391 0 0 -600z"/>
      <path id="_23" class="fil25" d="M5642 14991l0 587 1361 0 0 -587 -1361 0zm-45 -20l1451 0 0 626 -1451 0 0 -626z"/>
      <path id="_24" class="fil26" d="M5612 14978l0 613 1421 0 0 -613 -1421 0zm-44 -19l1509 0 0 651 -1510 0 1 -651z"/>
      <path id="_25" class="fil27" d="M5582 14965l0 639 1481 0 0 -639 -1481 0zm-44 -19l1569 0 0 677 -1569 0 0 -677z"/>
      <path id="_26" class="fil28" d="M5553 14952l0 664 1539 0 0 -664 -1539 0zm-45 -19l1629 0 0 702 -1629 0 0 -702z"/>
      <path id="_27" class="fil29" d="M5523 14939l0 690 1599 0 0 -690 -1599 0zm-44 -19l1687 0 0 728 -1687 0 0 -728z"/>
      <path id="_28" class="fil30" d="M5493 14927l0 715 1658 0 0 -715 -1658 0zm-44 -19l1747 0 0 753 -1747 0 0 -753z"/>
      <path id="_29" class="fil31" d="M5464 14914l0 741 1717 0 0 -741 -1717 0zm-45 -19l1806 0 0 779 -1806 0 0 -779z"/>
      <path id="_30" class="fil31" d="M5434 14901l0 766 1777 0 0 -766 -1777 0zm-44 -19l1865 0 0 805 -1865 0 0 -805z"/>
      <path id="_31" class="fil32" d="M5405 14888l0 792 1835 0 0 -792 -1835 0zm-45 -19l1925 0 0 830 -1925 0 0 -830z"/>
      <path id="_32" class="fil33" d="M5375 14876l0 817 1895 0 0 -817 -1895 0zm-44 -20l1983 0 0 856 -1983 0 0 -856z"/>
      <path id="_33" class="fil34" d="M5345 14863l0 843 1954 0 0 -843 -1954 0zm-44 -19l2043 0 0 881 -2043 0 0 -881z"/>
      <path id="_34" class="fil35" d="M5316 14850l0 868 2013 0 0 -868 -2013 0zm-45 -19l2102 0 0 907 -2102 0 0 -907z"/>
      <path id="_35" class="fil36" d="M5286 14837l0 894 2073 0 0 -894 -2073 0zm-44 -19l2161 0 0 932 -2161 0 0 -932z"/>
      <path id="_36" class="fil37" d="M5257 14825l0 919 2131 0 0 -919 -2131 0zm-45 -20l2221 0 0 958 -2221 0 0 -958z"/>
      <path id="_37" class="fil38" d="M5227 14812l0 945 2191 0 0 -945 -2191 0zm-44 -19l2279 0 0 983 -2279 0 0 -983z"/>
      <path id="_38" class="fil39" d="M5197 14799l0 971 2250 0 0 -971 -2250 0zm-44 -19l2339 0 0 1009 -2339 0 0 -1009z"/>
      <path id="_39" class="fil40" d="M5168 14786l0 996 2309 0 0 -996 -2309 0zm-45 -19l2398 0 0 1034 -2398 1 0 -1035z"/>
      <path id="_40" class="fil41" d="M5138 14773l0 1022 2369 0 0 -1022 -2369 0zm-44 -19l2457 0 0 1060 -2457 0 0 -1060z"/>
      <path id="_41" class="fil42" d="M5109 14761l0 1047 2427 0 0 -1047 -2427 0zm-45 -19l2517 0 0 1085 -2517 0 0 -1085z"/>
      <path id="_42" class="fil43" d="M5079 14748l0 1073 2487 0 0 -1073 -2487 0zm-44 -19l2575 0 0 1111 -2575 0 0 -1111z"/>
      <path id="_43" class="fil44" d="M5049 14735l0 1098 2546 0 0 -1098 -2546 0zm-44 -19l2635 0 0 1137 -2635 0 0 -1137z"/>
      <path id="_44" class="fil44" d="M5020 14722l0 1124 2605 0 0 -1124 -2605 0zm-45 -19l2694 0 0 1162 -2694 0 0 -1162z"/>
      <path id="_45" class="fil45" d="M4990 14710l0 1149 2665 0 0 -1149 -2665 0zm-44 -20l2753 0 0 1188 -2753 0 0 -1188z"/>
      <path id="_46" class="fil46" d="M4961 14697l0 1175 2723 0 0 -1175 -2723 0zm-45 -19l2813 0 0 1213 -2813 0 0 -1213z"/>
      <path id="_47" class="fil47" d="M4931 14684l0 1201 2783 -1 0 -1200 -2783 0zm-44 -19l2871 0 0 1239 -2871 0 0 -1239z"/>
      <path id="_48" class="fil48" d="M4901 14671l0 1226 2842 0 0 -1226 -2842 0zm-44 -19l2931 0 0 1264 -2931 0 0 -1264z"/>
      <path id="_49" class="fil49" d="M4872 14659l0 1251 2901 0 0 -1251 -2901 0zm-45 -20l2990 0 0 1290 -2990 0 0 -1290z"/>
      <path id="_50" class="fil50" d="M4842 14646l0 1277 2961 0 0 -1277 -2961 0zm-44 -19l3049 0 0 1315 -3049 0 0 -1315z"/>
      <path id="_51" class="fil51" d="M4813 14633l0 1303 3019 0 0 -1303 -3019 0zm-45 -19l3109 0 0 1341 -3109 0 0 -1341z"/>
      <path id="_52" class="fil52" d="M4783 14620l0 1328 3079 0 0 -1328 -3079 0zm-44 -19l3167 0 0 1367 -3167 0 0 -1367z"/>
      <path id="_53" class="fil53" d="M4753 14607l0 1354 3138 0 0 -1354 -3138 0zm-44 -19l3227 0 0 1392 -3227 0 0 -1392z"/>
      <path id="_54" class="fil54" d="M4724 14595l0 1379 3197 0 0 -1379 -3197 0zm-45 -19l3287 0 -1 1417 -3286 0 0 -1417z"/>
      <path id="_55" class="fil55" d="M4694 14582l0 1405 3257 0 0 -1405 -3257 0zm-44 -19l3345 0 0 1443 -3345 0 0 -1443z"/>
      <path id="_56" class="fil56" d="M4665 14569l0 1430 3315 0 0 -1430 -3315 0zm-45 -19l3405 0 0 1469 -3405 0 0 -1469z"/>
      <path id="_57" class="fil57" d="M4635 14556l0 1456 3375 0 0 -1456 -3375 0zm-44 -19l3463 0 0 1494 -3463 0 0 -1494z"/>
      <path id="_58" class="fil58" d="M4605 14544l0 1481 3434 0 1 -1481 -3435 0zm-44 -20l3523 0 0 1520 -3523 0 0 -1520z"/>
      <path id="_59" class="fil59" d="M4576 14531l0 1507 3493 0 0 -1507 -3493 0zm-45 -19l3583 0 0 1545 -3583 0 0 -1545z"/>
      <path id="_60" class="fil60" d="M4546 14518l0 1533 3553 0 0 -1533 -3553 0zm-44 -19l3641 0 0 1571 -3641 0 0 -1571z"/>
      <path id="_61" class="fil61" d="M4517 14505l0 1558 3611 0 0 -1558 -3611 0zm-45 -19l3701 0 0 1596 -3701 0 0 -1596z"/>
      <path id="_62" class="fil62" d="M4487 14493l0 1583 3671 0 0 -1583 -3671 0zm-44 -20l3759 0 0 1622 -3759 0 0 -1622z"/>
      <path id="_63" class="fil63" d="M4457 14480l0 1609 3731 0 0 -1609 -3731 0zm-44 -19l3819 0 0 1647 -3819 0 0 -1647z"/>
      <path id="_64" class="fil64" d="M4428 14467l0 1635 3789 0 0 -1635 -3789 0zm-45 -19l3879 0 0 1673 -3879 0 0 -1673z"/>
      <path id="_65" class="fil64" d="M4398 14454l0 1660 3849 0 0 -1660 -3849 0zm-44 -19l3937 0 0 1699 -3937 0 0 -1699z"/>
      <path id="_66" class="fil64" d="M4369 14441l-1 1686 3908 0 0 -1686 -3907 0zm-45 -19l3997 0 0 1724 -3997 0 0 -1724z"/>
      <path id="_67" class="fil65" d="M4339 14429l0 1711 3967 0 0 -1711 -3967 0zm-44 -19l4055 0 0 1749 -4056 0 1 -1749z"/>
      <path id="_68" class="fil66" d="M4309 14416l0 1737 4027 0 0 -1737 -4027 0zm-44 -19l4115 0 0 1775 -4115 0 0 -1775z"/>
      <path id="_69" class="fil66" d="M4280 14403l0 1762 4085 0 0 -1762 -4085 0zm-45 -19l4175 0 0 1801 -4175 0 0 -1801z"/>
      <path id="_70" class="fil66" d="M4250 14390l0 1788 4145 0 0 -1788 -4145 0zm-44 -19l4233 0 0 1826 -4233 0 0 -1826z"/>
      <path id="_71" class="fil66" d="M4220 14378l0 1813 4204 0 0 -1813 -4204 0zm-44 -20l4293 0 0 1852 -4293 0 0 -1852z"/>
      <path id="_72" class="fil67" d="M4191 14365l0 1839 4263 0 0 -1839 -4263 0zm-45 -19l4352 0 0 1877 -4352 0 0 -1877z"/>
      <path id="_73" class="fil68" d="M4161 14352l0 1865 4323 0 0 -1865 -4323 0zm-44 -19l4411 0 0 1903 -4411 0 0 -1903z"/>
      <path id="_74" class="fil68" d="M4132 14339l0 1890 4381 0 0 -1890 -4381 0zm-45 -19l4471 0 0 1928 -4471 0 0 -1928z"/>
      <path id="_75" class="fil68" d="M4102 14327l0 1915 4441 0 0 -1915 -4441 0zm-44 -20l4529 0 0 1954 -4529 0 0 -1954z"/>
      <path id="_76" class="fil69" d="M4072 14314l0 1941 4500 0 0 -1941 -4500 0zm-44 -19l4589 0 0 1979 -4589 0 0 -1979z"/>
      <path id="_77" class="fil70" d="M4043 14301l0 1967 4559 0 0 -1967 -4559 0zm-45 -19l4648 0 0 2005 -4648 0 0 -2005z"/>
      <path id="_78" class="fil70" d="M4013 14288l0 1992 4619 0 0 -1992 -4619 0zm-44 -19l4707 0 0 2031 -4707 0 0 -2031z"/>
      <path id="_79" class="fil70" d="M3984 14275l0 2018 4677 0 0 -2018 -4677 0zm-45 -19l4767 0 0 2056 -4767 0 0 -2056z"/>
      <path id="_80" class="fil70" d="M3954 14263l0 2043 4737 0 0 -2043 -4737 0zm-44 -19l4825 -1 0 2082 -4825 0 0 -2081z"/>
      <path id="_81" class="fil71" d="M3924 14250l0 2069 4796 0 0 -2069 -4796 0zm-44 -19l4885 0 0 2107 -4885 0 0 -2107z"/>
      <path id="_82" class="fil72" d="M3895 14237l0 2094 4855 0 0 -2094 -4855 0zm-45 -19l4944 0 0 2133 -4944 0 0 -2133z"/>
      <path id="_83" class="fil72" d="M3865 14224l0 2120 4915 0 0 -2120 -4915 0zm-44 -19l5003 0 0 2158 -5003 0 0 -2158z"/>
      <path id="_84" class="fil72" d="M3836 14212l0 2145 4973 0 0 -2145 -4973 0zm-45 -20l5063 0 0 2184 -5063 0 0 -2184z"/>
      <path id="_85" class="fil73" d="M3806 14199l0 2171 5033 0 0 -2171 -5033 0zm-44 -19l5121 0 0 2209 -5121 0 0 -2209z"/>
      <path id="_86" class="fil73" d="M3776 14186l0 2197 5092 0 0 -2197 -5092 0zm-44 -19l5181 0 0 2235 -5181 0 0 -2235z"/>
      <path id="_87" class="fil73" d="M3747 14173l0 2222 5151 0 0 -2222 -5151 0zm-45 -19l5240 0 0 2260 -5240 0 0 -2260z"/>
      <path id="_88" class="fil73" d="M3717 14161l0 2247 5211 0 0 -2248 -5211 1zm-44 -20l5299 0 0 2286 -5299 0 0 -2286z"/>
      <path id="_89" class="fil74" d="M3688 14148l0 2273 5269 0 0 -2273 -5269 0zm-45 -19l5359 0 0 2311 -5359 0 0 -2311z"/>
      <path id="_90" class="fil75" d="M3658 14135l0 2299 5329 0 0 -2299 -5329 0zm-44 -19l5417 0 0 2337 -5417 0 0 -2337z"/>
      <path id="_91" class="fil76" d="M3628 14122l0 2324 5388 0 0 -2324 -5388 0zm-44 -19l5477 0 0 2363 -5477 0 0 -2363z"/>
      <path id="_92" class="fil77" d="M3599 14109l0 2350 5447 0 0 -2350 -5447 0zm-45 -19l5536 0 0 2388 -5536 0 0 -2388z"/>
      <path id="_93" class="fil77" d="M3569 14097l0 2375 5507 0 0 -2375 -5507 0zm-44 -19l5595 -1 0 2414 -5595 0 0 -2413z"/>
      <path id="_94" class="fil77" d="M3540 14084l0 2401 5565 0 0 -2401 -5565 0zm-45 -19l5655 0 0 2439 -5655 0 0 -2439z"/>
      <path id="_95" class="fil77" d="M3510 14071l0 2426 5625 0 0 -2426 -5625 0zm-44 -19l5713 0 0 2465 -5713 0 0 -2465z"/>
      <path id="_96" class="fil77" d="M3480 14058l0 2452 5684 0 1 -2452 -5685 0zm-44 -19l5773 0 0 2490 -5773 0 0 -2490z"/>
      <path id="_97" class="fil78" d="M3451 14046l0 2477 5743 0 0 -2477 -5743 0zm-45 -20l5833 0 -1 2516 -5832 0 0 -2516z"/>
      <path id="_98" class="fil79" d="M3421 14033l0 2503 5803 0 0 -2503 -5803 0zm-44 -19l5891 0 0 2541 -5891 0 0 -2541z"/>
      <path id="_99" class="fil79" d="M3392 14020l0 2529 5861 0 0 -2529 -5861 0zm-45 -19l5951 0 0 2567 -5951 0 0 -2567z"/>
      <path id="_100" class="fil80" d="M3362 14007l0 2554 5921 0 0 -2554 -5921 0zm-44 -19l6009 0 0 2592 -6009 1 0 -2593z"/>
      <path id="_101" class="fil80" d="M3332 13995l0 2579 5980 0 1 -2580 -5981 1zm-44 -20l6069 0 0 2618 -6069 0 0 -2618z"/>
      <path id="_102" class="fil80" d="M3303 13982l0 2605 6039 0 0 -2605 -6039 0zm-45 -19l6129 0 0 2643 -6129 0 0 -2643z"/>
      <path id="_103" class="fil80" d="M3273 13969l0 2631 6099 0 0 -2631 -6099 0zm-44 -19l6187 0 0 2669 -6187 0 0 -2669z"/>
      <path id="_104" class="fil81" d="M3244 13956l-1 2656 6158 0 0 -2656 -6157 0zm-45 -19l6247 0 0 2695 -6247 0 0 -2695z"/>
      <path id="_105" class="fil81" d="M3214 13943l0 2682 6217 0 0 -2682 -6217 0zm-44 -19l6305 0 0 2720 -6306 0 1 -2720z"/>
      <path id="_106" class="fil81" d="M3184 13931l0 2707 6277 0 0 -2707 -6277 0zm-44 -20l6365 0 0 2746 -6365 0 0 -2746z"/>
      <path id="_107" class="fil81" d="M3155 13918l0 2733 6335 0 0 -2733 -6335 0zm-45 -19l6425 0 0 2771 -6425 0 0 -2771z"/>
      <path id="_108" class="fil81" d="M3125 13905l0 2759 6395 -1 0 -2758 -6395 0zm-44 -19l6483 0 0 2797 -6483 0 0 -2797z"/>
      <path id="_109" class="fil82" d="M3096 13892l-1 2784 6454 0 0 -2784 -6453 0zm-45 -19l6543 0 0 2822 -6543 0 0 -2822z"/>
      <path id="_110" class="fil83" d="M3066 13880l0 2809 6513 0 0 -2809 -6513 0zm-44 -20l6601 0 0 2848 -6602 0 1 -2848z"/>
      <path id="_111" class="fil83" d="M3036 13867l0 2835 6573 0 0 -2835 -6573 0zm-44 -19l6661 0 0 2873 -6661 0 0 -2873z"/>
      <path id="_112" class="fil84" d="M3007 13854l0 2861 6631 0 0 -2861 -6631 0zm-45 -19l6721 0 0 2899 -6721 0 0 -2899z"/>
      <path id="_113" class="fil85" d="M2977 13841l0 2886 6691 0 0 -2886 -6691 0zm-44 -19l6779 0 0 2924 -6779 1 0 -2925z"/>
      <path id="_114" class="fil85" d="M2947 13828l0 2912 6750 0 0 -2912 -6750 0zm-44 -19l6839 0 0 2950 -6839 0 0 -2950z"/>
      <path id="_115" class="fil85" d="M2918 13816l0 2937 6809 0 0 -2937 -6809 0zm-45 -19l6898 0 0 2975 -6898 0 0 -2975z"/>
      <path id="_116" class="fil85" d="M2888 13803l0 2963 6869 0 0 -2963 -6869 0zm-44 -19l6957 0 0 3001 -6957 0 0 -3001z"/>
      <path id="_117" class="fil86" d="M2859 13790l0 2988 6927 0 0 -2988 -6927 0zm-45 -19l7017 0 0 3027 -7017 0 0 -3027z"/>
      <path id="_118" class="fil87" d="M2829 13777l0 3014 6987 0 0 -3014 -6987 0zm-44 -19l7075 0 0 3052 -7075 0 0 -3052z"/>
      <path id="_119" class="fil88" d="M2799 13765l0 3039 7046 0 0 -3039 -7046 0zm-44 -20l7135 0 0 3078 -7135 0 0 -3078z"/>
      <path id="_120" class="fil88" d="M2770 13752l0 3065 7105 0 0 -3065 -7105 0zm-45 -19l7194 0 0 3103 -7194 0 0 -3103z"/>
      <path id="_121" class="fil88" d="M2740 13739l0 3091 7165 -1 0 -3090 -7165 0zm-44 -19l7253 0 0 3129 -7253 0 0 -3129z"/>
      <path id="_122" class="fil89" d="M2711 13726l0 3116 7223 0 0 -3116 -7223 0zm-45 -19l7313 0 0 3154 -7313 0 0 -3154z"/>
      <path id="_123" class="fil89" d="M2681 13714l0 3141 7283 0 0 -3141 -7283 0zm-44 -20l7371 0 0 3180 -7371 0 0 -3180z"/>
      <path id="_124" class="fil89" d="M2651 13701l0 3167 7342 0 0 -3167 -7342 0zm-44 -19l7431 0 0 3205 -7431 0 0 -3205z"/>
      <path id="_125" class="fil89" d="M2622 13688l0 3193 7401 0 0 -3193 -7401 0zm-45 -19l7490 0 0 3231 -7490 0 0 -3231z"/>
      <path id="_126" class="fil89" d="M2592 13675l0 3218 7461 0 0 -3218 -7461 0zm-44 -19l7549 0 0 3256 -7549 1 0 -3257z"/>
      <path id="_127" class="fil90" d="M2563 13662l0 3244 7519 0 0 -3244 -7519 0zm-45 -19l7609 0 0 3282 -7609 0 0 -3282z"/>
      <path id="_128" class="fil90" d="M2533 13650l0 3269 7579 0 0 -3269 -7579 0zm-44 -19l7667 0 0 3307 -7667 0 0 -3307z"/>
      <path id="_129" class="fil90" d="M2503 13637l0 3295 7638 0 0 -3295 -7638 0zm-44 -19l7727 0 0 3333 -7727 0 0 -3333z"/>
      <path id="_130" class="fil90" d="M2474 13624l0 3320 7697 0 0 -3320 -7697 0zm-45 -19l7786 0 0 3359 -7786 0 0 -3359z"/>
      <path id="_131" class="fil90" d="M2444 13611l0 3346 7757 0 0 -3346 -7757 0zm-44 -19l7845 0 0 3384 -7845 0 0 -3384z"/>
      <path id="_132" class="fil91" d="M2415 13599l0 3371 7815 0 0 -3371 -7815 0zm-45 -20l7905 0 0 3410 -7905 0 0 -3410z"/>
      <path id="_133" class="fil91" d="M2385 13586l0 3397 7875 0 0 -3397 -7875 0zm-44 -19l7963 0 0 3435 -7963 0 0 -3435z"/>
      <path id="_134" class="fil91" d="M2355 13573l0 3423 7934 0 1 -3423 -7935 0zm-44 -19l8023 0 0 3461 -8023 0 0 -3461z"/>
      <path id="_135" class="fil92" d="M2326 13560l0 3448 7993 0 0 -3448 -7993 0zm-45 -19l8083 0 -1 3486 -8082 0 0 -3486z"/>
      <path id="_136" class="fil93" d="M2296 13548l0 3473 8053 0 0 -3473 -8053 0zm-44 -20l8141 0 0 3512 -8141 0 0 -3512z"/>
      <path id="_137" class="fil94" d="M2267 13535l0 3499 8111 0 0 -3499 -8111 0zm-45 -19l8201 0 0 3537 -8201 0 0 -3537z"/>
      <path id="_138" class="fil94" d="M2237 13522l0 3525 8171 0 0 -3525 -8171 0zm-44 -19l8259 0 0 3563 -8259 0 0 -3563z"/>
      <path id="_139" class="fil94" d="M2207 13509l0 3550 8230 0 1 -3550 -8231 0zm-44 -19l8319 0 0 3589 -8319 0 0 -3589z"/>
      <path id="_140" class="fil94" d="M2178 13496l0 3576 8289 0 0 -3576 -8289 0zm-45 -19l8379 0 -1 3614 -8378 0 0 -3614z"/>
      <path id="_141" class="fil95" d="M2148 13484l0 3601 8349 0 0 -3601 -8349 0zm-44 -19l8437 -1 0 3640 -8437 0 0 -3639z"/>
      <path id="_142" class="fil96" d="M2119 13471l0 3627 8407 0 0 -3627 -8407 0zm-45 -19l8497 0 0 3665 -8497 0 0 -3665z"/>
      <path id="_143" class="fil96" d="M2089 13458l0 3652 8467 0 0 -3652 -8467 0zm-44 -19l8555 0 0 3691 -8556 0 1 -3691z"/>
      <path id="_144" class="fil97" d="M2059 13445l0 3678 8526 0 1 -3678 -8527 0zm-44 -19l8615 0 0 3716 -8615 0 0 -3716z"/>
      <path id="_145" class="fil97" d="M2030 13433l0 3703 8585 0 0 -3703 -8585 0zm-45 -20l8675 0 0 3742 -8675 0 0 -3742z"/>
      <path id="_146" class="fil97" d="M2000 13420l0 3729 8645 0 0 -3729 -8645 0zm-44 -19l8733 0 0 3767 -8733 0 0 -3767z"/>
      <path id="_147" class="fil97" d="M1971 13407l-1 3755 8704 0 0 -3755 -8703 0zm-45 -19l8793 0 0 3793 -8793 0 0 -3793z"/>
      <path id="_148" class="fil98" d="M1941 13394l0 3780 8763 0 0 -3780 -8763 0zm-44 -19l8851 0 0 3818 -8852 0 1 -3818z"/>
      <path id="_149" class="fil98" d="M1911 13382l0 3805 8823 0 0 -3806 -8823 1zm-44 -20l8911 0 0 3844 -8911 0 0 -3844z"/>
      <path id="_150" class="fil98" d="M1882 13369l0 3831 8881 0 0 -3831 -8881 0zm-45 -19l8971 0 0 3869 -8971 0 0 -3869z"/>
      <path id="_151" class="fil99" d="M1852 13356l0 3857 8941 0 0 -3857 -8941 0zm-44 -19l9029 0 0 3895 -9029 0 0 -3895z"/>
      <path id="_152" class="fil99" d="M1823 13343l-1 3882 9000 0 0 -3882 -8999 0zm-45 -19l9089 0 0 3921 -9089 0 0 -3921z"/>
      <path id="_153" class="fil100" d="M1793 13330l0 3908 9059 0 0 -3908 -9059 0zm-44 -19l9147 0 0 3946 -9148 0 1 -3946z"/>
      <path id="_154" class="fil100" d="M1763 13318l0 3933 9119 0 0 -3933 -9119 0zm-44 -19l9207 -1 0 3972 -9207 0 0 -3971z"/>
      <path id="_155" class="fil100" d="M1734 13305l0 3959 9177 0 0 -3959 -9177 0zm-45 -19l9267 0 0 3997 -9267 0 0 -3997z"/>
      <path id="_156" class="fil100" d="M1704 13292l0 3985 9237 -1 0 -3984 -9237 0zm-44 -19l9325 0 0 4023 -9325 0 0 -4023z"/>
      <path id="_157" class="fil101" d="M1674 13279l0 4010 9296 0 0 -4010 -9296 0zm-44 -19l9385 0 0 4048 -9385 0 0 -4048z"/>
      <path id="_158" class="fil101" d="M1645 13267l0 4035 9355 0 0 -4035 -9355 0zm-45 -20l9444 0 0 4074 -9444 0 0 -4074z"/>
      <path id="_159" class="fil101" d="M1615 13254l0 4061 9415 0 0 -4061 -9415 0zm-44 -19l9503 0 0 4099 -9503 0 0 -4099z"/>
      <path id="_160" class="fil101" d="M1586 13241l0 4087 9473 0 0 -4087 -9473 0zm-45 -19l9563 0 0 4125 -9563 0 0 -4125z"/>
      <path id="_161" class="fil102" d="M1556 13228l0 4112 9533 0 0 -4112 -9533 0zm-44 -19l9621 0 0 4150 -9621 1 0 -4151z"/>
      <path id="_162" class="fil103" d="M1526 13216l0 4137 9592 0 0 -4138 -9592 1zm-44 -20l9681 0 0 4176 -9681 0 0 -4176z"/>
      <path id="_163" class="fil103" d="M1497 13203l0 4163 9651 0 0 -4163 -9651 0zm-45 -19l9740 0 0 4201 -9740 0 0 -4201z"/>
      <path id="_164" class="fil103" d="M1467 13190l0 4189 9711 0 0 -4189 -9711 0zm-44 -19l9799 0 0 4227 -9799 0 0 -4227z"/>
      <path id="_165" class="fil104" d="M1438 13177l0 4214 9769 0 0 -4214 -9769 0zm-45 -19l9859 0 0 4253 -9859 0 0 -4253z"/>
      <path id="_166" class="fil104" d="M1408 13164l0 4240 9829 0 0 -4240 -9829 0zm-44 -19l9917 0 0 4278 -9917 0 0 -4278z"/>
      <path id="_167" class="fil104" d="M1378 13152l0 4265 9888 0 0 -4265 -9888 0zm-44 -19l9977 -1 0 4304 -9977 0 0 -4303z"/>
      <path id="_168" class="fil104" d="M1349 13139l0 4291 9947 0 0 -4291 -9947 0zm-45 -19l10036 0 0 4329 -10036 0 0 -4329z"/>
      <path id="_169" class="fil105" d="M1319 13126l0 4317 10007 -1 0 -4316 -10007 0zm-44 -19l10095 0 0 4355 -10095 0 0 -4355z"/>
      <path id="_170" class="fil105" d="M1290 13113l0 4342 10065 0 0 -4342 -10065 0zm-45 -19l10155 0 0 4380 -10155 0 0 -4380z"/>
      <path id="_171" class="fil106" d="M1260 13101l0 4367 10125 0 0 -4367 -10125 0zm-44 -20l10213 0 0 4406 -10213 0 0 -4406z"/>
      <path id="_172" class="fil107" d="M1230 13088l0 4393 10184 0 0 -4393 -10184 0zm-44 -19l10273 0 0 4431 -10273 0 0 -4431z"/>
      <path id="_173" class="fil107" d="M1201 13075l0 4419 10243 0 0 -4419 -10243 0zm-45 -19l10333 0 -1 4457 -10332 0 0 -4457z"/>
      <path id="_174" class="fil108" d="M1171 13062l0 4444 10303 0 0 -4444 -10303 0zm-44 -19l10391 0 0 4482 -10391 1 0 -4483z"/>
      <path id="_175" class="fil108" d="M1142 13050l0 4469 10361 0 0 -4470 -10361 1zm-45 -20l10451 0 0 4508 -10451 0 0 -4508z"/>
      <path id="_176" class="fil108" d="M1112 13037l0 4495 10421 0 0 -4495 -10421 0zm-44 -19l10509 0 0 4533 -10509 0 0 -4533z"/>
      <path id="_177" class="fil109" d="M1082 13024l0 4521 10480 0 1 -4521 -10481 0zm-44 -19l10569 0 0 4559 -10569 0 0 -4559z"/>
      <path id="_178" class="fil109" d="M1053 13011l0 4546 10539 0 0 -4546 -10539 0zm-45 -19l10629 0 -1 4585 -10628 0 0 -4585z"/>
      <path id="_179" class="fil110" d="M1023 12998l0 4572 10599 0 0 -4572 -10599 0zm-44 -19l10687 0 0 4610 -10687 0 0 -4610z"/>
      <path id="_180" class="fil111" d="M994 12986l0 4597 10657 0 0 -4597 -10657 0zm-45 -20l10747 0 0 4636 -10747 0 0 -4636z"/>
      <path id="_181" class="fil111" d="M964 12973l0 4623 10717 0 0 -4623 -10717 0zm-44 -19l10805 0 0 4661 -10806 0 1 -4661z"/>
      <path id="_182" class="fil112" d="M934 12960l0 4649 10776 -1 1 -4648 -10777 0zm-44 -19l10865 0 0 4687 -10865 0 0 -4687z"/>
      <path id="_183" class="fil113" d="M905 12947l0 4674 10835 0 0 -4674 -10835 0zm-45 -19l10925 0 -1 4712 -10924 0 0 -4712z"/>
      <path id="_184" class="fil113" d="M875 12935l0 4699 10895 0 0 -4699 -10895 0zm-44 -20l10983 0 0 4738 -10983 0 0 -4738z"/>
      <path id="_185" class="fil113" d="M846 12922l-1 4725 10954 0 0 -4725 -10953 0zm-45 -19l11043 0 0 4763 -11043 0 0 -4763z"/>
      <path id="_186" class="fil113" d="M816 12909l0 4751 11013 0 0 -4751 -11013 0zm-44 -19l11101 0 0 4789 -11102 0 1 -4789z"/>
      <path id="_187" class="fil113" d="M786 12896l0 4776 11073 0 0 -4776 -11073 0zm-44 -19l11161 0 0 4814 -11161 1 0 -4815z"/>
      <path id="_188" class="fil114" d="M757 12883l0 4802 11131 0 0 -4802 -11131 0zm-45 -19l11221 0 0 4840 -11221 0 0 -4840z"/>
      <path id="_189" class="fil115" d="M727 12871l0 4827 11191 0 0 -4827 -11191 0zm-44 -19l11279 0 0 4865 -11279 0 0 -4865z"/>
      <path id="_190" class="fil116" d="M698 12858l-1 4853 11250 0 0 -4853 -11249 0zm-45 -19l11339 0 0 4891 -11339 0 0 -4891z"/>
      <path id="_191" class="fil116" d="M668 12845l0 4878 11309 0 0 -4878 -11309 0zm-44 -19l11397 0 0 4917 -11398 0 1 -4917z"/>
      <path id="_192" class="fil116" d="M638 12832l0 4904 11369 0 0 -4904 -11369 0zm-44 -19l11457 0 0 4942 -11457 0 0 -4942z"/>
      <path id="_193" class="fil116" d="M609 12820l0 4929 11427 0 0 -4929 -11427 0zm-45 -20l11517 0 0 4968 -11517 0 0 -4968z"/>
      <path id="_194" class="fil116" d="M579 12807l0 4955 11487 0 0 -4955 -11487 0zm-44 -19l11575 0 0 4993 -11575 0 0 -4993z"/>
      <path id="_195" class="fil117" d="M550 12794l-1 4981 11546 -1 0 -4980 -11545 0zm-45 -19l11635 0 0 5019 -11635 0 0 -5019z"/>
      <path id="_196" class="fil117" d="M520 12781l0 5006 11605 0 0 -5006 -11605 0zm-45 -19l11694 0 0 5044 -11694 0 0 -5044z"/>
      <path id="_197" class="fil117" d="M490 12769l0 5031 11665 0 0 -5032 -11665 1zm-44 -20l11753 0 0 5070 -11753 0 0 -5070z"/>
      <path id="_198" class="fil118" d="M461 12756l0 5057 11723 0 0 -5057 -11723 0zm-45 -19l11813 0 0 5095 -11813 0 0 -5095z"/>
      <path id="_199" class="fil119" d="M431 12743l0 5083 11783 0 0 -5083 -11783 0zm-44 -19l11871 0 0 5121 -11871 0 0 -5121z"/>
      <path id="_200" class="fil119" d="M401 12730l0 5108 11842 0 0 -5108 -11842 0zm-44 -19l11931 0 0 5146 -11931 1 0 -5147z"/>
      <path id="_201" class="fil119" d="M372 12717l0 5134 11901 0 0 -5134 -11901 0zm-45 -19l11990 0 0 5172 -11990 0 0 -5172z"/>
      <path id="_202" class="fil119" d="M342 12705l0 5159 11961 0 0 -5159 -11961 0zm-44 -19l12049 -1 0 5198 -12049 0 0 -5197z"/>
      <path id="_203" class="fil120" d="M313 12692l0 5185 12019 0 0 -5185 -12019 0zm-45 -19l12109 0 0 5223 -12109 0 0 -5223z"/>
      <path id="_204" class="fil120" d="M283 12679l0 5210 12079 0 0 -5210 -12079 0zm-44 -19l12167 0 0 5249 -12167 0 0 -5249z"/>
      <path id="_205" class="fil120" d="M253 12666l0 5236 12138 0 0 -5236 -12138 0zm-44 -19l12227 0 0 5274 -12227 0 0 -5274z"/>
      <path id="_206" class="fil120" d="M224 12654l0 5261 12197 0 0 -5261 -12197 0zm-45 -20l12286 0 0 5300 -12286 0 0 -5300z"/>
      <path id="_207" class="fil121" d="M194 12641l0 5287 12257 0 0 -5287 -12257 0zm-44 -19l12345 0 0 5325 -12345 0 0 -5325z"/>
      <path id="_208" class="fil121" d="M165 12628l0 5313 12315 0 0 -5313 -12315 0zm-45 -19l12405 0 0 5351 -12405 0 0 -5351z"/>
      <path id="_209" class="fil121" d="M135 12615l0 5338 12375 0 0 -5338 -12375 0zm-44 -19l12463 0 0 5376 -12463 0 0 -5376z"/>
      <path id="_210" class="fil121" d="M105 12603l0 5363 12434 0 0 -5364 -12434 1zm-44 -20l12523 0 0 5402 -12523 0 0 -5402z"/>
      <path id="_211" class="fil122" d="M76 12590l0 5389 12493 0 0 -5389 -12493 0zm-45 -19l12583 0 -1 5427 -12582 0 0 -5427z"/>
      <path id="_212" class="fil122" d="M46 12577l0 5415 12553 0 0 -5415 -12553 0zm-44 -19l12641 0 0 5453 -12641 0 0 -5453z"/>
      <path id="_213" class="fil123" d="M17 12564l0 5440 12611 0 0 -5440 -12611 0zm-45 -19l12701 0 0 5479 -12701 0 0 -5479z"/>
      <path id="_214" class="fil123" d="M-13 12551l0 5466 12671 0 0 -5466 -12671 0zm-44 -19l12759 0 0 5504 -12759 0 0 -5504z"/>
      <path id="_215" class="fil124" d="M-43 12539l0 5491 12730 0 1 -5491 -12731 0zm-44 -19l12819 -1 0 5530 -12819 0 0 -5529z"/>
      <path id="_216" class="fil125" d="M-72 12526l0 5517 12789 0 0 -5517 -12789 0zm-45 -19l12879 0 -1 5555 -12878 0 0 -5555z"/>
      <path id="_217" class="fil125" d="M-102 12513l0 5543 12849 -1 0 -5542 -12849 0zm-44 -19l12937 0 0 5581 -12937 0 0 -5581z"/>
      <path id="_218" class="fil125" d="M-131 12500l0 5568 12907 0 0 -5568 -12907 0zm-45 -19l12997 0 0 5606 -12997 0 0 -5606z"/>
      <path id="_219" class="fil125" d="M-161 12488l0 5593 12967 0 0 -5593 -12967 0zm-44 -20l13055 0 0 5632 -13055 0 0 -5632z"/>
      <path id="_220" class="fil125" d="M-191 12475l0 5619 13026 0 1 -5619 -13027 0zm-44 -19l13115 0 0 5657 -13115 0 0 -5657z"/>
      <path id="_221" class="fil126" d="M-220 12462l0 5645 13085 0 0 -5645 -13085 0zm-45 -19l13175 0 -1 5683 -13174 0 0 -5683z"/>
      <path id="_222" class="fil126" d="M-250 12449l0 5670 13145 0 0 -5670 -13145 0zm-44 -19l13233 0 0 5708 -13233 1 0 -5709z"/>
      <path id="_223" class="fil126" d="M-279 12437l-1 5695 13204 0 0 -5696 -13203 1zm-45 -20l13293 0 0 5734 -13293 0 0 -5734z"/>
      <path id="_224" class="fil127" d="M-309 12424l0 5721 13263 0 0 -5721 -13263 0zm-44 -19l13351 0 0 5759 -13352 0 1 -5759z"/>
      <path id="_225" class="fil127" d="M-339 12411l0 5747 13322 0 1 -5747 -13323 0zm-44 -19l13411 0 0 5785 -13411 0 0 -5785z"/>
      <path id="_226" class="fil127" d="M-368 12398l0 5772 13381 0 0 -5772 -13381 0zm-45 -19l13471 0 -1 5811 -13470 0 0 -5811z"/>
      <path id="_227" class="fil127" d="M-398 12385l0 5798 13441 0 0 -5798 -13441 0zm-44 -19l13529 0 0 5836 -13529 0 0 -5836z"/>
      <path id="_228" class="fil128" d="M-427 12373l-1 5823 13500 0 0 -5823 -13499 0zm-45 -19l13589 -1 0 5862 -13589 0 0 -5861z"/>
      <path id="_229" class="fil128" d="M-457 12360l0 5849 13559 0 0 -5849 -13559 0zm-44 -19l13647 0 0 5887 -13648 0 1 -5887z"/>
      <path id="_230" class="fil129" d="M-487 12347l0 5875 13619 -1 0 -5874 -13619 0zm-44 -19l13707 0 0 5913 -13707 0 0 -5913z"/>
      <path id="_231" class="fil129" d="M-516 12334l0 5900 13677 0 0 -5900 -13677 0zm-45 -19l13767 0 0 5938 -13767 0 0 -5938z"/>
      <path id="_232" class="fil130" d="M-546 12322l0 5925 13737 0 0 -5925 -13737 0zm-44 -20l13825 0 0 5964 -13825 0 0 -5964z"/>
      <path id="_233" class="fil131" d="M-575 12309l-1 5951 13796 0 0 -5951 -13795 0zm-45 -19l13885 0 0 5989 -13885 0 0 -5989z"/>
      <path id="_234" class="fil131" d="M-605 12296l0 5977 13855 0 0 -5977 -13855 0zm-44 -19l13943 0 0 6015 -13944 0 1 -6015z"/>
      <path id="_235" class="fil131" d="M-635 12283l0 6002 13915 0 0 -6002 -13915 0zm-44 -19l14003 0 0 6040 -14003 1 0 -6041z"/>
      <path id="_236" class="fil131" d="M-664 12271l0 6027 13973 0 0 -6028 -13973 1zm-45 -20l14063 0 0 6066 -14063 0 0 -6066z"/>
      <path id="_237" class="fil132" d="M-694 12258l0 6053 14033 0 0 -6053 -14033 0zm-44 -19l14121 0 0 6091 -14121 0 0 -6091z"/>
      <path id="_238" class="fil133" d="M-723 12245l-1 6079 14092 0 0 -6079 -14091 0zm-45 -19l14181 0 0 6117 -14181 0 0 -6117z"/>
      <path id="_239" class="fil133" d="M-753 12232l0 6104 14151 0 0 -6104 -14151 0zm-45 -19l14240 0 0 6143 -14240 0 0 -6143z"/>
      <path id="_240" class="fil133" d="M-783 12219l0 6130 14211 0 0 -6130 -14211 0zm-44 -19l14299 0 0 6168 -14299 0 0 -6168z"/>
      <path id="_241" class="fil134" d="M-812 12207l0 6155 14269 0 0 -6155 -14269 0zm-45 -19l14359 -1 0 6194 -14359 0 0 -6193z"/>
      <path id="_242" class="fil135" d="M-842 12194l0 6181 14329 0 0 -6181 -14329 0zm-44 -19l14417 0 0 6219 -14417 0 0 -6219z"/>
      <path id="_243" class="fil135" d="M-872 12181l0 6207 14388 -1 0 -6206 -14388 0zm-44 -19l14477 0 0 6245 -14477 0 0 -6245z"/>
      <path id="_244" class="fil135" d="M-901 12168l0 6232 14447 0 0 -6232 -14447 0zm-30 -12l14507 0 0 6257 -14507 0 0 -6257z"/>
     </g>
    </g>
    <path class="fil3" d="M137 15321l0 -253 607 0c88,0 157,-30 210,-91 53,-60 79,-138 79,-236l0 0c0,-99 -26,-179 -79,-239 -53,-60 -122,-90 -210,-90l-607 0 0 -254 598 0c116,0 215,24 301,73 85,48 152,116 199,203 48,87 71,189 71,307l0 0c0,117 -23,219 -71,306 -47,87 -114,154 -199,202 -86,48 -185,72 -301,72l-598 0zm-137 737l0 -1900 266 0 0 1900 -266 0zm1574 0l0 -1356 267 0 0 1356 -267 0zm747 -1035c-24,-29 -54,-50 -90,-65 -35,-15 -76,-22 -124,-22 -84,0 -149,23 -196,70 -47,46 -70,111 -70,194l-28 -262c42,-80 95,-143 162,-188 66,-45 140,-68 220,-68 62,0 118,9 168,27 50,18 94,44 131,79l-173 235zm889 1055c-178,0 -315,-52 -413,-155 -97,-103 -146,-248 -146,-436l0 -221c0,-185 49,-329 146,-431 98,-102 235,-153 413,-153 178,0 316,51 413,153 98,102 147,246 147,431l0 225c0,186 -49,331 -147,433 -97,102 -235,154 -413,154zm0 -254c94,0 165,-29 217,-87 51,-59 76,-140 76,-246l0 -225c0,-105 -25,-186 -76,-244 -52,-57 -123,-86 -217,-86 -92,0 -164,29 -215,86 -52,58 -77,139 -77,244l0 225c0,106 25,187 77,246 51,58 123,87 215,87zm2559 234l0 -822c0,-96 -25,-170 -74,-222 -49,-52 -119,-78 -210,-78 -83,0 -146,25 -192,75 -45,51 -68,123 -68,215l-53 -261c43,-91 100,-161 170,-210 69,-48 147,-73 231,-73 147,0 261,48 341,145 81,96 121,232 121,408l0 823 -266 0zm-1620 0l0 -1356 266 0 0 1356 -266 0zm810 0l0 -822c0,-96 -24,-170 -71,-222 -47,-52 -114,-78 -200,-78 -87,0 -154,23 -202,69 -47,46 -71,111 -71,195l-27 -262c42,-81 96,-145 164,-189 67,-44 142,-67 224,-67 143,0 253,48 332,145 78,96 117,232 117,408l0 823 -266 0zm2002 20c-178,0 -316,-52 -413,-155 -98,-103 -146,-248 -146,-436l0 -221c0,-185 48,-329 146,-431 97,-102 235,-153 413,-153 177,0 315,51 413,153 97,102 146,246 146,431l0 225c0,186 -49,331 -146,433 -98,102 -236,154 -413,154zm0 -254c93,0 165,-29 216,-87 51,-59 76,-140 76,-246l0 -225c0,-105 -25,-186 -76,-244 -51,-57 -123,-86 -216,-86 -93,0 -164,29 -216,86 -51,58 -77,139 -77,244l0 225c0,106 26,187 77,246 52,58 123,87 216,87zm2323 -789l659 0 0 332c0,143 -28,267 -84,374 -55,107 -132,190 -232,248 -99,59 -215,89 -350,89 -134,0 -253,-28 -354,-83 -101,-56 -179,-134 -235,-234 -56,-101 -83,-218 -83,-352l0 -561c0,-143 27,-267 83,-374 55,-106 132,-188 231,-247 100,-59 217,-88 351,-88 110,0 211,23 302,70 91,47 167,113 229,198 62,84 104,183 126,296l0 0 -289 0 0 0c-24,-98 -72,-174 -142,-226 -71,-52 -146,-78 -226,-78 -119,0 -214,41 -285,123 -72,83 -107,191 -107,326l0 561c0,123 36,222 109,297 74,74 170,112 290,112 119,0 214,-40 285,-118 72,-79 107,-188 107,-328l0 -82 -385 0 0 -255zm1849 -333l272 0 -578 1674c-32,93 -79,158 -139,194 -61,36 -145,54 -252,54l-53 0 0 -256 53 0c50,0 90,-10 119,-30 29,-20 55,-55 76,-103l502 -1533zm-388 1467l-541 -1467 272 0 416 1179 -147 288zm2515 -111l0 -822c0,-96 -25,-170 -74,-222 -49,-52 -119,-78 -209,-78 -83,0 -147,25 -193,75 -45,51 -68,123 -68,215l-53 -261c43,-91 100,-161 170,-210 69,-48 147,-73 231,-73 147,0 261,48 342,145 80,96 120,232 120,408l0 823 -266 0zm-1620 0l0 -1356 266 0 0 1356 -266 0zm810 0l0 -822c0,-96 -24,-170 -71,-222 -47,-52 -113,-78 -200,-78 -87,0 -154,23 -202,69 -47,46 -71,111 -71,195l-27 -262c42,-81 96,-145 164,-189 67,-44 142,-67 224,-67 143,0 253,48 332,145 78,96 117,232 117,408l0 823 -266 0z"/>
   </g>
   <path class="fil136" d="M5828 5969l2611 -1507c107,-62 230,-62 338,0l2463 1423c108,62 169,169 169,293 0,124 -61,230 -169,292l-169 98 0 0 -202 116 -5931 3425c-107,62 -230,62 -338,0 -107,-62 -169,-169 -169,-293l0 -598 721 -416 0 355 5162 -2980 -1760 -1016 -1860 1074 1593 919 -709 409 -1750 -1008c-107,-62 -169,-169 -169,-293 0,-124 62,-231 169,-293zm5243 599l-1 0 0 0 -2 1 0 0 -2 0 0 0 -1 1 0 0 -2 0 0 0 -1 1 0 0 -2 0 0 0 -1 0 -2 1 0 0 -2 0 0 0 -1 0 0 0 -2 0 0 0 -1 1 0 0 -2 0 0 0 -2 0 0 0 -1 0 0 0 -2 0 0 0 -1 0 0 0 -2 1 -2 0 0 0 -1 0 0 0 -2 0 0 0 -1 0 -2 0 0 0 -2 0 0 0 -1 0 -2 0 -1 0 0 0 -2 -1 0 0 -2 0 0 0 -1 0 0 0 -2 0 -1 0 -2 0 0 0 -1 -1 0 0 -2 0 -2 0 -1 0 0 0 -2 -1 -1 0 0 0 -2 0 0 0 -2 -1 -1 0 -2 -1 -1 0 -2 -1 0 0 -1 0 -2 -1 -2 0 -1 -1 -2 0 0 0 -1 -1 -2 0 -1 -1 -2 -1 -1 0 -2 -1 -1 -1 -2 -1 -1 0 -2 -1 -1 -1 -2 -1 -1 -1 -657 -379m-5162 2432l-721 416 0 -6485c0,-125 62,-231 169,-293 108,-62 231,-62 338,0l2997 1730c107,62 168,168 168,292 0,125 -61,231 -168,293l-2616 1510 0 -777 1732 -1000 -1899 -1098 0 5412z"/>
  </g>
 </g>
</svg>
